<?xml version="1.0" encoding="UTF-8"?>
<svg xmlns="http://www.w3.org/2000/svg" viewBox="0 0 1100 780">
  <rect width="1100" height="780" fill="#FAFAFA"/>
  <text x="30" y="36" font-family="Arial,sans-serif" font-size="20" font-weight="700" fill="#232F3E">Innovatech Chile - Arquitectura AWS (EP2 DevOps)</text>
  <text x="30" y="56" font-family="Arial,sans-serif" font-size="12" fill="#545B64">Region us-east-1 | VPC 10.0.0.0/16 | 3 capas | CI/CD GitHub Actions</text>

  <circle cx="55" cy="115" r="12" fill="#232F3E"/>
  <path d="M35 155c0-12 10-18 20-18s20 6 20 18" fill="#232F3E"/>
  <text x="30" y="175" font-family="Arial,sans-serif" font-size="11" font-weight="700" fill="#232F3E">Usuarios</text>
  <text x="30" y="189" font-family="Arial,sans-serif" font-size="10" fill="#545B64">HTTP :80</text>

  <rect x="900" y="80" width="180" height="100" rx="6" fill="#24292F"/>
  <text x="920" y="108" font-family="Arial,sans-serif" font-size="11" font-weight="700" fill="#FFFFFF">GitHub Actions</text>
  <text x="920" y="124" font-family="Arial,sans-serif" font-size="10" fill="#CCCCCC">Rama deploy | Build ECR | SSH</text>

  <rect x="150" y="75" width="700" height="620" rx="8" fill="#FFFFFF" stroke="#FF9900" stroke-width="2"/>
  <text x="170" y="100" font-family="Arial,sans-serif" font-size="11" font-weight="700" fill="#FF9900">AWS Cloud</text>

  <rect x="170" y="115" width="660" height="560" rx="6" fill="#F2F8F0" stroke="#7AA116" stroke-width="2"/>
  <text x="200" y="137" font-family="Arial,sans-serif" font-size="11" font-weight="700" fill="#232F3E">Amazon VPC (10.0.0.0/16)</text>

  <circle cx="502" cy="167" r="22" fill="none" stroke="#9D5025" stroke-width="3"/>
  <path d="M502 145v44M480 167h44" stroke="#9D5025" stroke-width="3"/>
  <text x="468" y="198" font-family="Arial,sans-serif" font-size="10" fill="#545B64" text-anchor="middle">Internet Gateway</text>

  <rect x="190" y="210" width="300" height="200" rx="4" fill="#E8F4FC" stroke="#0073BB" stroke-width="1.5" stroke-dasharray="5 3"/>
  <text x="205" y="232" font-family="Arial,sans-serif" font-size="11" font-weight="700" fill="#232F3E">Subred publica 10.0.1.0/24</text>

  <rect x="224" y="262" width="56" height="40" rx="4" fill="#ED7100"/>
  <rect x="232" y="270" width="40" height="24" rx="2" fill="#FFFFFF"/>
  <text x="290" y="278" font-family="Arial,sans-serif" font-size="11" font-weight="700" fill="#232F3E">EC2 Frontend</text>
  <text x="290" y="294" font-family="Arial,sans-serif" font-size="10" fill="#545B64">nginx + React :80</text>

  <rect x="404" y="267" width="44" height="36" rx="4" fill="#8C4FFF"/>
  <path d="M426 285h20M436 275v20" stroke="#FFFFFF" stroke-width="3"/>
  <text x="388" y="318" font-family="Arial,sans-serif" font-size="10" fill="#545B64" text-anchor="middle">NAT Gateway</text>

  <rect x="190" y="430" width="620" height="220" rx="4" fill="#FFF8E6" stroke="#C7131F" stroke-width="1.5" stroke-dasharray="5 3"/>
  <text x="205" y="452" font-family="Arial,sans-serif" font-size="11" font-weight="700" fill="#232F3E">Subred privada 10.0.2.0/24</text>

  <rect x="214" y="487" width="56" height="40" rx="4" fill="#ED7100"/>
  <text x="280" y="503" font-family="Arial,sans-serif" font-size="11" font-weight="700" fill="#232F3E">EC2 Backend</text>
  <text x="280" y="519" font-family="Arial,sans-serif" font-size="10" fill="#545B64">Spring Boot :8080 / :8081</text>

  <rect x="504" y="487" width="56" height="40" rx="4" fill="#ED7100"/>
  <text x="570" y="503" font-family="Arial,sans-serif" font-size="11" font-weight="700" fill="#232F3E">EC2 Database</text>
  <text x="570" y="519" font-family="Arial,sans-serif" font-size="10" fill="#545B64">MySQL 8 :3306</text>

  <rect x="720" y="200" width="110" height="130" rx="4" fill="#FFFFFF" stroke="#ED7100" stroke-width="1.5"/>
  <rect x="749" y="231" width="52" height="36" rx="4" fill="#ED7100"/>
  <text x="730" y="290" font-family="Arial,sans-serif" font-size="11" font-weight="700" fill="#232F3E">Amazon ECR</text>

  <defs>
    <marker id="ah" markerWidth="8" markerHeight="6" refX="7" refY="3" orient="auto">
      <polygon points="0,0 8,3 0,6" fill="#232F3E"/>
    </marker>
  </defs>
  <path d="M80 155 L150 320" fill="none" stroke="#0073BB" stroke-width="2" marker-end="url(#ah)"/>
  <path d="M305 410 L305 430" fill="none" stroke="#232F3E" stroke-width="2" marker-end="url(#ah)"/>
  <path d="M470 505 L504 505" fill="none" stroke="#1A7F37" stroke-width="2" marker-end="url(#ah)"/>
  <path d="M448 318 L448 430" fill="none" stroke="#1A7F37" stroke-width="2" marker-end="url(#ah)"/>

  <rect x="30" y="700" width="1040" height="60" rx="4" fill="#FFFFFF" stroke="#879596"/>
  <text x="50" y="742" font-family="Arial,sans-serif" font-size="10" fill="#545B64">Flujo: Usuario - HTTP:80 - Frontend - Backend :8080/:8081 - MySQL :3306 | CI/CD via SSH bastion</text>
</svg>
